<svg xmlns="http://www.w3.org/2000/svg" version="1.1" xmlns:xlink="http://www.w3.org/1999/xlink" xmlns:svgjs="http://svgjs.dev/svgjs" width="100%" height="100%" viewBox="0 0 1000 600"><rect width="1000" height="600" x="0" y="0" fill="dark blue"/><g><circle r="166.66666666666666" cx="357.9982554117838" cy="380.22056836805007" fill="white" transform="matrix(0.653315602863284,0,0,0.653315602863284,0,51.59594333332471)"/><path d="M425.91757380660295 305.22056736718497Q431.8395940282389 305.22056736718497 435.8489120664893 309.34023360832305Q439.8582301047398 313.4966825837569 439.8582301047398 319.19800639961767L439.8582301047398 319.19800639961767L439.8582301047398 445.6570469088377Q439.8582301047398 449.51923400990455 437.0259595639573 452.3882872849828Q434.19368902317495 455.2205578257653 430.2947191878121 455.2205578257653L430.2947191878121 455.2205578257653Q426.4325320867452 455.2205578257653 423.5634788116669 452.3882872849828Q420.73120827088445 449.51923400990455 420.73120827088445 445.6570469088377L420.73120827088445 445.6570469088377L420.73120827088445 325.3775057613247L371.5894752515948 446.42948432905104Q370.044600411168 450.3284541644138 366.4031097158764 452.7561146279416Q362.79840175488056 455.2205578257653 358.1269944993044 455.2205578257653L358.1269944993044 455.2205578257653Q353.4923699780241 455.2205578257653 349.8508792827324 452.90324556512513Q346.2461713217366 450.58593330448497 344.4438173412387 446.42948432905104L344.4438173412387 446.42948432905104L295.5595634620202 325.3775057613247L295.5595634620202 445.6570469088377Q295.5595634620202 449.51923400990455 292.6905101869419 452.3882872849828Q289.85823964615946 455.2205578257653 285.73857340502144 455.2205578257653L285.73857340502144 455.2205578257653Q281.8396035696586 455.2205578257653 279.0073330288762 452.3882872849828Q276.1382797537979 449.51923400990455 276.1382797537979 445.6570469088377L276.1382797537979 445.6570469088377L276.1382797537979 319.19800639961767Q276.1382797537979 313.4966825837569 280.1475977920483 309.34023360832305Q284.1569158302988 305.22056736718497 290.1157187862306 305.22056736718497L290.1157187862306 305.22056736718497L297.10443830244697 305.22056736718497Q301.2608872778809 305.22056736718497 304.7184643016932 307.79535876789623Q308.21282405980133 310.4069329029034 310.0519607745951 314.01164086389923L310.0519607745951 314.01164086389923L358.1269944993044 434.03370287134095L406.23881095830956 314.01164086389923Q407.7836857987363 310.4069329029034 411.27804555684446 307.79535876789623Q414.77240531495266 305.22056736718497 419.18633343045775 305.22056736718497L419.18633343045775 305.22056736718497L425.91757380660295 305.22056736718497Z " fill="gold" transform="matrix(0.653315602863284,0,0,0.653315602863284,0,51.59594333332471)"/><path d="M717.2647939829773 310.1311305229428Q721.585008534102 310.1311305229428 724.5098742861059 313.13649716720346Q727.4347400381096 316.16869744221657 727.4347400381096 320.3279102088274L727.4347400381096 320.3279102088274L727.4347400381096 412.58193273533067Q727.4347400381096 415.3994639643251 725.3685504701804 417.4924871630066Q723.302360902251 419.55867673093593 720.4579960425043 419.55867673093593L720.4579960425043 419.55867673093593Q717.6404648135099 419.55867673093593 715.5474416148284 417.4924871630066Q713.481252046899 415.3994639643251 713.481252046899 412.58193273533067L713.481252046899 412.58193273533067L713.481252046899 324.8359601752184L677.6315213617889 413.14543898112953Q676.5045088701912 415.9898038408763 673.8479794257108 417.76082347052994Q671.2182836119827 419.55867673093593 667.810412506437 419.55867673093593L667.810412506437 419.55867673093593Q664.4293750316436 419.55867673093593 661.7728455871633 417.8681579935392Q659.1431497734351 416.17763925614264 657.828301866571 413.14543898112953L657.828301866571 413.14543898112953L622.1664065967273 324.8359601752184L622.1664065967273 412.58193273533067Q622.1664065967273 415.3994639643251 620.0733833980456 417.4924871630066Q618.0071938301164 419.55867673093593 615.0018271858557 419.55867673093593L615.0018271858557 419.55867673093593Q612.1574623261089 419.55867673093593 610.0912727581798 417.4924871630066Q607.9982495594982 415.3994639643251 607.9982495594982 412.58193273533067L607.9982495594982 412.58193273533067L607.9982495594982 320.3279102088274Q607.9982495594982 316.16869744221657 610.9231153115019 313.13649716720346Q613.8479810635057 310.1311305229428 618.1950292453827 310.1311305229428L618.1950292453827 310.1311305229428L623.2934190883251 310.1311305229428Q626.3256193633381 310.1311305229428 628.8479806540569 312.00948467560573Q631.3971755755281 313.914672459021 632.7388571131445 316.5443682727492L632.7388571131445 316.5443682727492L667.810412506437 404.10250541759507L702.9088015304818 316.5443682727492Q704.0358140220796 313.914672459021 706.5850089435509 312.00948467560573Q709.134203865022 310.1311305229428 712.3542395553013 310.1311305229428L712.3542395553013 310.1311305229428L717.2647939829773 310.1311305229428ZM757.4347392192121 343.9146716401236L757.4347392192121 343.9146716401236Q770.4490501340912 338.2527755513824 784.429371756054 338.44061096664876L784.429371756054 338.44061096664876Q800.0733784846611 338.44061096664876 808.7674748484154 348.0470507759821L808.7674748484154 348.0470507759821Q816.4955605050858 356.36547630920376 816.6833959203522 368.81628097828394L816.6833959203522 368.81628097828394L816.6833959203522 412.58193273533067Q816.6833959203522 415.3994639643251 814.5098718294136 417.4924871630066Q812.336347738475 419.55867673093593 809.3309810942143 419.55867673093593L809.3309810942143 419.55867673093593Q806.4866162344675 419.55867673093593 804.4204266665382 417.4924871630066Q802.354237098609 415.3994639643251 802.354237098609 412.58193273533067L802.354237098609 412.58193273533067L802.354237098609 408.6105553839862Q798.1950243319983 412.9576035658633 791.2182803363929 416.6338109789322Q784.2415363407878 420.31001839200115 773.4812504091042 420.31001839200115Q762.7209644774207 420.31001839200115 755.5563850665492 414.084616057461L755.5563850665492 414.084616057461Q748.2039702404113 407.6713783076547 748.2039702404113 397.28676320650374L748.2039702404113 397.28676320650374Q748.2039702404113 385.80196924450746 756.8712329734133 379.1740624486825L756.8712329734133 379.1740624486825Q766.3166709982327 372.00948303781087 783.6780300949888 372.19731845307723L783.6780300949888 372.19731845307723L802.354237098609 372.19731845307723L802.354237098609 370.88247054621314Q802.354237098609 360.49785544506227 797.3363481479238 356.1776408939375Q792.3452928279908 351.8305927120603 781.7728423115735 351.8305927120603L781.7728423115735 351.8305927120603Q772.9177441633053 351.8305927120603 761.2182811552904 355.39946560211996L761.2182811552904 355.39946560211996Q760.0912686636926 355.8019700634049 758.4812508185529 355.8019700634049Q756.8712329734133 355.8019700634049 755.1807142360166 354.19195221826516Q753.49019549862 352.58193437312553 753.3828609756106 349.09356237532285Q753.3023600833536 345.6051903775203 757.4347392192121 343.9146716401236ZM762.3452936468881 395.59624446910715L762.3452936468881 395.59624446910715Q762.3452936468881 408.0470491381872 778.7674756673129 407.85921372292097L778.7674756673129 407.85921372292097Q785.9320550781844 407.85921372292097 792.2379583049814 404.3708417251183Q798.5706951625308 400.8824697273157 802.354237098609 396.5354215454386L802.354237098609 396.5354215454386L802.354237098609 383.5211106305596L785.7442196629181 383.5211106305596Q774.7960983159683 383.5211106305596 768.5706959814282 386.25814096729704Q762.3452936468881 388.9951713040345 762.3452936468881 395.59624446910715ZM841.3971698432462 312.1973200908721Q841.3971698432462 309.1919534466113 843.4633594111754 307.206264770939Q845.5563826098569 305.2205760952668 848.5617492541177 305.2205760952668Q851.5939495291308 305.2205760952668 853.579638204803 307.206264770939Q855.5384932497229 309.1919534466113 855.5384932497229 312.1973200908721L855.5384932497229 312.1973200908721L855.5384932497229 412.58193273533067Q855.5384932497229 415.3994639643251 853.579638204803 417.4924871630066Q851.5939495291308 419.55867673093593 848.5617492541177 419.55867673093593Q845.5563826098569 419.55867673093593 843.4633594111754 417.4924871630066Q841.3971698432462 415.3994639643251 841.3971698432462 412.58193273533067L841.3971698432462 412.58193273533067L841.3971698432462 312.1973200908721ZM940.4669345808406 339.1919526277139Q943.4723012251014 339.1919526277139 945.4579899007737 341.2581421956432Q947.4436785764459 343.3243317635724 947.4436785764459 345.6051903775203Q947.4436785764459 347.85921536071584 946.880172330647 348.98622785231356L946.880172330647 348.98622785231356L904.8050393109969 450.3100175731037Q902.8998515275816 455.22057200077967 898.3918015611905 455.22057200077967L898.3918015611905 455.22057200077967Q895.7352721167101 455.22057200077967 893.7495834410378 453.15438243285047Q891.7638947653655 451.06135923416883 891.7638947653655 449.1025041892489Q891.7638947653655 447.1168155135767 892.1663992266505 445.7751339759603L892.1663992266505 445.7751339759603L902.1485098665165 419.93434756146854L873.0876877617453 349.1740632675799Q872.5241815159465 347.6713799454495 872.5241815159465 345.497855854511Q872.5241815159465 343.3243317635724 874.5098701916187 341.2581421956432Q876.4955588672909 339.1919526277139 878.9374192657527 339.1919526277139L878.9374192657527 339.1919526277139Q884.0358091086952 339.1919526277139 885.9409968921103 343.5390008095911L885.9409968921103 343.5390008095911L909.6887601079205 402.5729884647124L934.026863200282 343.7268362248573Q935.9320509836973 339.0041172124476 940.4669345808406 339.1919526277139L940.4669345808406 339.1919526277139ZM1002.7209579262413 351.4549218815277L1002.7209579262413 351.4549218815277Q989.1431407655634 351.4549218815277 977.2558423422822 366.3475869490697L977.2558423422822 366.3475869490697L977.2558423422822 412.58193273533067Q977.2558423422822 415.3994639643251 975.1628191436006 417.4924871630066Q973.0966295756715 419.55867673093593 970.2522647159248 419.55867673093593L970.2522647159248 419.55867673093593Q967.4347334869302 419.55867673093593 965.3685439190009 417.4924871630066Q963.2755207203194 415.3994639643251 963.2755207203194 412.58193273533067L963.2755207203194 412.58193273533067L963.2755207203194 346.3565320385855Q963.2755207203194 343.3243317635724 965.2612093959916 341.2581421956432Q967.2468980716638 339.1919526277139 970.2522647159248 339.1919526277139L970.2522647159248 339.1919526277139Q973.0966295756715 339.1919526277139 975.1628191436006 341.1776413033861Q977.2558423422822 343.13649634830614 977.2558423422822 346.3565320385855L977.2558423422822 346.3565320385855L977.2558423422822 352.7697697883918Q983.4812446768223 346.3565320385855 987.9892946432134 343.5390008095911L987.9892946432134 343.5390008095911Q996.6833910069676 338.44061096664876 1004.7066466019136 338.44061096664876Q1012.7299021968596 338.44061096664876 1017.8014584090497 340.8019704728536Q1022.8998482519919 343.13649634830614 1026.495554772804 347.4835445301832L1026.495554772804 347.4835445301832Q1033.6601341836754 355.98980547867114 1033.6601341836754 368.6284455630176L1033.6601341836754 368.6284455630176L1033.6601341836754 412.58193273533067Q1033.6601341836754 415.3994639643251 1031.5939446157463 417.4924871630066Q1029.5009214170645 419.55867673093593 1026.68339018807 419.55867673093593L1026.68339018807 419.55867673093593Q1023.8390253283234 419.55867673093593 1021.7728357603942 417.4924871630066Q1019.7066461924649 415.3994639643251 1019.7066461924649 412.58193273533067L1019.7066461924649 412.58193273533067L1019.7066461924649 370.1311288851479Q1019.7066461924649 361.43703252139375 1015.7352688411204 356.4459772014607Q1011.7638914897758 351.4549218815277 1002.7209579262413 351.4549218815277ZM1065.7263229327073 401.07030514258196Q1069.5098648687854 401.07030514258196 1072.0590597902565 403.61950006405317Q1074.6082547117276 406.16869498552427 1074.6082547117276 409.7375678755839L1074.6082547117276 409.7375678755839L1074.6082547117276 410.7035785826677Q1074.6082547117276 414.27245147272737 1072.0590597902565 416.7411455019415Q1069.5098648687854 419.1830059004033 1065.7263229327073 419.1830059004033L1065.7263229327073 419.1830059004033L1064.2236396105768 419.1830059004033Q1060.627933089765 419.1830059004033 1058.1860726913033 416.6338109789322Q1055.7442122928414 414.084616057461 1055.7442122928414 410.7035785826677L1055.7442122928414 410.7035785826677L1055.7442122928414 409.7375678755839Q1055.7442122928414 406.16869498552427 1058.1860726913033 403.61950006405317Q1060.627933089765 401.07030514258196 1064.2236396105768 401.07030514258196L1064.2236396105768 401.07030514258196L1065.7263229327073 401.07030514258196ZM1097.8193453124914 346.3565320385855Q1097.8193453124914 343.13649634830614 1099.885534880421 341.1776413033861Q1101.95172444835 339.1919526277139 1104.983924723363 339.1919526277139Q1107.9892913676235 339.1919526277139 1109.894479151039 341.1776413033861Q1111.772833303702 343.13649634830614 1111.772833303702 346.3565320385855L1111.772833303702 346.3565320385855L1111.772833303702 412.58193273533067Q1111.772833303702 415.3994639643251 1109.894479151039 417.4924871630066Q1107.9892913676235 419.55867673093593 1104.983924723363 419.55867673093593Q1101.95172444835 419.55867673093593 1099.885534880421 417.4924871630066Q1097.8193453124914 415.3994639643251 1097.8193453124914 412.58193273533067L1097.8193453124914 412.58193273533067L1097.8193453124914 346.3565320385855ZM1113.275516625832 315.41735578115134L1113.275516625832 315.9808620269503Q1113.275516625832 319.38873313249593 1111.0214916426366 321.6427581156915Q1108.740633028689 323.89678309888706 1105.3595955538954 323.89678309888706L1105.3595955538954 323.89678309888706L1104.420418477564 323.89678309888706Q1101.0125473720186 323.89678309888706 1098.8390232810798 321.6427581156915Q1096.6654991901414 319.38873313249593 1096.6654991901414 315.9808620269503L1096.6654991901414 315.9808620269503L1096.6654991901414 315.41735578115134Q1096.6654991901414 312.00948467560573 1098.946357804089 309.75545969241017Q1101.2003827872845 307.50143470921466 1104.420418477564 307.50143470921466L1104.420418477564 307.50143470921466L1105.3595955538954 307.50143470921466Q1108.740633028689 307.50143470921466 1111.0214916426366 309.75545969241017Q1113.275516625832 312.00948467560573 1113.275516625832 315.41735578115134L1113.275516625832 315.41735578115134ZM1195.3595930972033 339.5676234582465L1195.3595930972033 339.5676234582465Q1206.8712206899518 339.5676234582465 1215.1628125924212 347.4835445301832L1215.1628125924212 347.4835445301832L1215.538483422954 344.85384871645505Q1215.9141542534862 342.7608255177735 1217.604672990883 341.3654767186525Q1219.322025359032 339.9432942887791 1221.495549449971 339.9432942887791Q1223.642239910157 339.9432942887791 1225.2522577552968 341.5533121339187Q1226.8622756004365 343.13649634830614 1226.8622756004365 344.47817788592255L1226.8622756004365 344.47817788592255L1226.8622756004365 346.3565320385855Q1226.8622756004365 346.732202869118 1226.8622756004365 347.4835445301832L1226.8622756004365 347.4835445301832L1221.5760503422275 376.73220205022056Q1220.4490378506298 383.14543980002696 1220.5295387428869 387.00948262836215Q1220.6368732658962 390.87352545669745 1222.327392003293 393.90572573171045Q1224.044744371442 396.91109237597124 1228.3649589225665 396.91109237597124L1228.3649589225665 396.91109237597124Q1238.1860677779187 396.91109237597124 1243.1771230978516 388.4316650582355Q1248.1950120485371 379.9522377404999 1248.1950120485371 367.39409854841045Q1248.1950120485371 354.8359593563211 1243.84796386666 346.2491975155761Q1239.5009156847827 337.68926930558354 1232.1485008586446 332.2152086321086L1232.1485008586446 332.2152086321086Q1217.7925084061494 320.70358103936 1197.6136180803987 320.70358103936L1197.6136180803987 320.70358103936Q1185.914155072384 320.70358103936 1175.449039078976 325.3189655287603Q1164.9839230855682 329.9343500181607 1157.148502905888 337.8771047208498Q1149.313082726209 345.7930257927865 1144.6976982368083 356.1776408939375Q1140.082313747408 366.53542236433606 1140.082313747408 376.6517011579636Q1140.082313747408 386.74114632083894 1143.0876803916685 394.8449028080419Q1146.1198806666816 402.948659295245 1152.1574475859557 409.3618970450513L1152.1574475859557 409.3618970450513Q1165.3595939161005 423.71788949754676 1186.477661318183 423.71788949754676L1186.477661318183 423.71788949754676Q1196.6744410040674 423.71788949754676 1202.1485016775423 422.2152061754164L1202.1485016775423 422.2152061754164Q1209.313081088414 420.31001839200115 1214.4919718236129 418.24382882407184Q1219.6976961895648 416.17763925614264 1220.9052095734196 416.17763925614264Q1222.1395565880266 416.17763925614264 1223.1860681873673 417.1973172247311Q1224.232579786708 418.24382882407184 1224.232579786708 420.31001839200115Q1224.232579786708 422.4030415906827 1222.1395565880266 423.5300540822804L1222.1395565880266 423.5300540822804Q1205.7173745676018 431.6338105694835 1186.477661318183 431.6338105694835L1186.477661318183 431.6338105694835Q1174.0268566491027 431.6338105694835 1164.0447460092369 427.2867623876063Q1154.0358017386184 422.96654783648154 1146.8712223277466 415.5067984873344Q1139.7066429168754 408.0470491381872 1135.9231009807972 398.4406093288539Q1132.1395590447187 388.80733588876814 1132.1395590447187 376.9200374654869Q1132.1395590447187 365.0327390422056 1137.4257843029272 353.1454406189244Q1142.7120095611358 341.2581421956432 1151.5939413401566 332.2152086321086Q1160.4490394884247 323.14544143782183 1172.3363379117059 317.7787152873562Q1184.223636334987 312.38515550613835 1196.8622764193337 312.38515550613835Q1209.50091650368 312.38515550613835 1220.3417033276205 316.3565328574828Q1231.2093237823133 320.3279102088274 1239.2325793772593 327.38515509668963Q1247.229001341453 334.4692336153042 1251.871219461606 344.2903424706562Q1256.4866039510061 354.0846176952559 1256.4866039510061 365.9719161185371L1256.4866039510061 365.9719161185371Q1256.4866039510061 381.45492106263026 1250.0733662011999 392.0273715790475L1250.0733662011999 392.0273715790475Q1242.1574451292631 404.2903408328613 1227.801452676768 404.10250541759507L1227.801452676768 404.10250541759507Q1216.1019896687526 404.10250541759507 1212.1574459481608 396.91109237597124L1212.1574459481608 396.91109237597124Q1211.0035998258104 394.8449028080419 1210.4400935800118 392.7787132401127L1210.4400935800118 392.7787132401127Q1201.0214891859446 404.4781762481277 1184.9749779960525 404.2903408328613L1184.9749779960525 404.2903408328613Q1172.5241733269722 404.2903408328613 1165.3595939161005 396.5354215454386L1165.3595939161005 396.5354215454386Q1158.7585207510283 389.18300671930075 1158.7585207510283 378.6105562028835Q1158.7585207510283 368.0649393172187 1161.871221918298 361.06136169086113Q1164.9839230855682 354.0846176952559 1170.2701483437768 349.1740632675799L1170.2701483437768 349.1740632675799Q1180.6279298141753 339.5676234582465 1195.3595930972033 339.5676234582465ZM1211.0035998258104 372.00948303781087L1213.4722938550244 357.4924888008015Q1206.8712206899518 350.32790938992997 1195.9230993430024 350.5157448051962L1195.9230993430024 350.5157448051962Q1185.3506488265853 350.5157448051962 1178.3739048309799 356.9289825550026L1178.3739048309799 356.9289825550026Q1170.6458191743095 364.09356196587413 1170.6458191743095 375.4173541433566L1170.6458191743095 375.4173541433566Q1170.6458191743095 384.46028770689105 1175.932044432518 389.370842134567L1175.932044432518 389.370842134567Q1180.6279298141753 393.53005490117783 1188.382849101598 393.53005490117783L1188.382849101598 393.53005490117783Q1201.5849954317432 393.53005490117783 1207.6225623510172 382.5819335542281L1207.6225623510172 382.5819335542281Q1209.8765873342127 378.42272078761727 1211.0035998258104 372.00948303781087L1211.0035998258104 372.00948303781087ZM1313.4544020381982 378.9862270334161L1337.6046697152933 407.85921372292097Q1339.3220220834423 409.7375678755839 1339.214687560433 412.3940973200644Q1339.134186668176 415.0237931337925 1337.3363334077703 417.30465174774037Q1335.5384801473642 419.55867673093593 1332.0501081495618 419.55867673093593Q1328.5617361517589 419.55867673093593 1326.6833819990961 416.92898091720775L1326.6833819990961 416.92898091720775L1304.59930388993 390.49785462616484L1284.0179091028945 416.55331008667514Q1281.763884119699 419.55867673093593 1278.3828466449058 419.55867673093593Q1274.97497553936 419.55867673093593 1273.0966213866973 417.680322578273Q1271.191433603282 415.7751347948577 1271.191433603282 412.9576035658633Q1271.191433603282 410.14007233686885 1272.7209505561646 408.0470491381872L1272.7209505561646 408.0470491381872L1296.8712182332597 379.9522377404999L1272.7209505561646 350.5157448051962Q1271.0035981880155 348.4227216065147 1271.1109327110248 345.68569126977724Q1271.191433603282 342.9486609330398 1273.1771222789544 341.0703067803768Q1275.1628109546264 339.1919526277139 1278.463347537163 339.1919526277139Q1281.763884119699 339.1919526277139 1283.6422382723622 341.82164844144205L1283.6422382723622 341.82164844144205L1305.3506455509955 368.6284455630176L1326.8712174143625 341.82164844144205Q1328.7495715670252 339.1919526277139 1332.0501081495618 339.1919526277139Q1335.3506447320979 339.1919526277139 1337.3363334077703 341.0703067803768Q1339.3220220834423 342.9486609330398 1339.3220220834423 345.6051903775203Q1339.3220220834423 348.23488619124845 1337.7925051305597 350.1400739746637L1337.7925051305597 350.1400739746637L1313.4544020381982 378.9862270334161Z " fill="gold" transform="matrix(0.653315602863284,0,0,0.653315602863284,0,51.59594333332471)"/></g></svg>